<?xml version="1.0" standalone="no"?>
<!DOCTYPE svg PUBLIC "-//W3C//DTD SVG 20010904//EN"
 "http://www.w3.org/TR/2001/REC-SVG-20010904/DTD/svg10.dtd">
<svg version="1.0" xmlns="http://www.w3.org/2000/svg"
 width="976.000000pt" height="1280.000000pt" viewBox="0 0 976.000000 1280.000000"
 preserveAspectRatio="xMidYMid meet">
<metadata>
Created by potrace 1.15, written by Peter Selinger 2001-2017
</metadata>
<g transform="translate(0.000000,1280.000000) scale(0.100000,-0.100000)"
fill="#FFB6C130" stroke="none">
<path d="M4995 12563 c-42 -131 -90 -281 -107 -334 l-31 -96 -191 73 c-105 40
-269 102 -365 138 -96 36 -176 65 -177 63 -2 -2 93 -148 212 -325 118 -178
213 -326 210 -330 -2 -4 -153 -95 -335 -202 -182 -107 -330 -197 -331 -200 0
-3 17 -6 38 -8 132 -9 737 -64 741 -67 2 -3 -1 -37 -7 -77 -6 -40 -30 -206
-52 -368 -22 -162 -42 -303 -44 -313 -3 -10 -1 -17 3 -15 4 2 126 128 271 281
144 152 266 277 270 277 4 0 125 -125 270 -277 145 -153 266 -279 270 -281 4
-1 -3 68 -16 155 -63 449 -85 615 -82 618 3 3 618 59 740 67 21 2 38 5 37 8 0
3 -149 93 -330 200 -182 107 -333 198 -335 202 -3 4 92 152 210 330 118 177
214 324 212 325 -1 2 -81 -27 -177 -63 -96 -36 -260 -98 -365 -138 l-191 -73
-31 96 c-17 53 -65 203 -107 334 -76 237 -76 237 -105 237 -29 0 -29 0 -105
-237z"/>
<path d="M8496 9274 c-66 -206 -123 -374 -126 -374 -3 0 -41 14 -85 31 -44 17
-199 76 -345 131 -145 55 -273 104 -284 110 -15 8 -18 7 -13 -5 3 -8 101 -158
217 -332 161 -241 209 -320 198 -326 -7 -5 -158 -95 -336 -200 -177 -106 -321
-193 -319 -196 2 -2 176 -18 386 -37 210 -18 383 -35 386 -37 2 -3 -20 -178
-49 -389 -30 -212 -53 -386 -51 -387 2 -3 433 449 500 525 l40 45 273 -287
c149 -157 272 -278 272 -270 0 9 -7 62 -15 118 -17 117 -71 516 -81 593 l-6
52 33 5 c36 6 622 56 652 56 13 0 17 8 17 33 -1 31 -6 35 -296 206 -164 97
-293 179 -291 185 3 6 100 155 216 331 116 175 209 319 208 320 -1 1 -164 -60
-362 -136 -198 -76 -364 -137 -368 -136 -5 2 -62 168 -127 371 -65 202 -120
369 -122 371 -2 2 -57 -165 -122 -371z"/>
<path d="M1093 8443 c-23 -71 -76 -235 -118 -365 l-76 -237 -37 14 c-20 7
-103 38 -184 69 -82 31 -214 81 -295 112 -223 84 -225 85 -217 71 4 -7 101
-153 216 -324 114 -172 208 -316 208 -320 0 -5 -133 -87 -295 -183 -273 -161
-295 -177 -295 -202 0 -21 6 -29 22 -32 13 -3 171 -18 352 -33 l328 -27 -6
-56 c-11 -91 -85 -631 -95 -682 -4 -27 -7 -48 -6 -48 1 0 123 127 270 283 148
155 271 283 275 285 4 1 128 -126 276 -282 147 -157 269 -284 270 -283 1 1
-22 177 -52 391 -29 215 -52 390 -51 391 1 1 175 16 387 34 212 18 387 34 388
36 4 3 -642 391 -663 398 -5 2 88 151 208 331 120 181 217 329 215 331 -2 2
-30 -7 -63 -20 -33 -13 -107 -42 -165 -64 -407 -155 -503 -191 -505 -189 -2 2
-54 165 -117 363 -64 197 -119 360 -124 362 -5 2 -28 -54 -51 -124z"/>
<path d="M6662 6399 c-10 -24 -54 -133 -98 -241 l-79 -197 -45 -5 c-25 -3
-124 -10 -220 -17 -96 -6 -194 -14 -217 -18 l-42 -6 195 -165 c108 -90 197
-167 199 -170 2 -3 -24 -119 -58 -258 -34 -139 -60 -252 -58 -252 2 0 102 61
222 135 119 74 220 135 223 135 3 0 103 -61 222 -135 119 -75 218 -134 220
-132 2 2 -24 117 -58 256 -41 164 -59 255 -52 259 35 24 384 325 381 329 -5 4
-114 13 -380 32 -70 5 -130 11 -133 13 -2 3 -47 110 -100 239 -53 129 -97 236
-100 238 -2 2 -12 -16 -22 -40z"/>
<path d="M5047 2157 c-134 -423 -189 -587 -197 -587 -7 0 -253 92 -585 220
-55 21 -110 41 -123 45 -21 6 77 -150 340 -543 38 -57 67 -106 64 -110 -4 -3
-155 -94 -338 -203 -313 -187 -330 -198 -297 -203 19 -3 193 -19 388 -36 195
-16 356 -32 358 -34 3 -2 -5 -69 -16 -148 -11 -78 -32 -228 -46 -333 -14 -104
-27 -198 -29 -207 -3 -14 3 -18 28 -18 29 0 55 24 265 245 128 135 236 245
241 245 5 0 113 -110 241 -245 207 -219 235 -245 264 -245 l31 0 -49 351 c-26
193 -46 353 -44 355 2 2 163 18 358 34 195 17 369 33 388 36 33 5 16 16 -297
203 -183 109 -334 200 -337 203 -3 3 91 152 209 332 119 179 214 326 212 326
-7 0 -126 -44 -351 -130 -325 -124 -376 -142 -382 -137 -5 5 -111 333 -196
604 -23 73 -44 133 -47 133 -3 0 -27 -69 -53 -153z"/>
</g>
</svg>
